<?xml version="1.0" standalone="no"?><!-- Generator: Gravit.io --><svg xmlns="http://www.w3.org/2000/svg" xmlns:xlink="http://www.w3.org/1999/xlink" style="isolation:isolate" viewBox="0 0 240 240" width="240" height="240"><defs><clipPath id="_clipPath_Ew1GcZ7Vtao5eF48g2eki2L9GuYZ8xBt"><rect width="240" height="240"/></clipPath></defs><g clip-path="url(#_clipPath_Ew1GcZ7Vtao5eF48g2eki2L9GuYZ8xBt)"><g id="Group"><path d=" M 208.214 117.975 C 210.731 117.975 210.304 117.024 211.172 114.627 L 218.576 90.26 L 161.585 56.45" fill="rgb(200,218,234)"/><path d=" M 208.214 117.975 C 206.271 117.975 205.412 117.086 204.328 116.032 L 193.966 105.956 L 206.891 98.162" fill="rgb(169,201,221)"/><linearGradient id="_lgradient_3" x1="0%" y1="50%" x2="52.98002342572003%" y2="134.8122462726354%"><stop offset="54.01669068312292%" stop-opacity="1" style="stop-color:rgb(239,247,252)"/><stop offset="90.56669068312291%" stop-opacity="1" style="stop-color:rgb(255,255,255)"/></linearGradient><path d=" M 206.893 98.164 L 175.573 121.303 C 171.999 123.275 169.42 122.254 168.53 117.985 L 155.781 57.909 C 154.476 52.676 157.776 50.303 161.195 51.855 L 236.054 80.72 C 241.164 82.77 241.134 85.62 236.986 86.891 L 217.775 92.887 L 173.301 64.828 C 171.201 63.555 169.274 64.24 170.856 65.643" fill="url(#_lgradient_3)"/></g><g id="Layer_2"><path d=" M 143.842 79.994 L 119.266 66.691 C 118.87 66.478 118.506 66.685 118.418 66.742 L 98.99 79.993 C 98.892 80.06 98.831 80.167 98.824 80.285 C 98.817 80.403 98.865 80.517 98.953 80.595 L 108.97 89.372 C 109.041 89.434 109.131 89.467 109.222 89.467 C 109.275 89.467 109.329 89.456 109.38 89.432 L 122.071 83.681 L 143.725 80.705 C 143.886 80.678 144.011 80.552 144.038 80.391 C 144.064 80.231 143.985 80.071 143.842 79.994 Z " fill="rgb(0,165,233)"/><path d=" M 107.553 99.913 L 128.589 102.202 C 128.589 102.202 135.267 91.327 143.948 84.744 L 143.132 79.845 L 122.071 83.681 L 109.38 89.432 L 107.553 99.913 Z " fill="rgb(0,204,185)"/><path d=" M 78.598 88.847 L 99.044 79.956 L 109.38 89.433 L 107.553 99.913 L 87.18 85.115 L 78.598 88.847 Z " fill="rgb(1,139,209)"/><path d=" M 87.17 84.995 L 5.701 51.921 C 4 51.231 3.696 51.406 3.696 51.406 C 3.573 51.672 4.187 52.545 4.345 52.763 C 17.707 70.827 48.751 102.842 49.069 103.168 C 49.143 103.244 49.242 103.284 49.343 103.284 C 49.397 103.284 49.452 103.272 49.504 103.248 L 87.187 85.694 C 87.325 85.63 87.411 85.491 87.407 85.339 C 87.405 85.187 87.311 85.052 87.17 84.995 Z " fill="rgb(0,165,233)"/><path d=" M 74.918 128.477 L 80.697 130.441 L 107.553 99.913 L 87.313 85.097 L 74.918 128.477 Z " fill="rgb(0,165,233)"/><path d=" M 124.258 121.316 C 124.542 121.008 124.807 120.835 124.967 119.899 L 124.967 119.899 C 125.759 114.998 128.588 102.202 128.588 102.202 L 107.552 99.912 L 80.697 130.44 L 91.477 145.513 L 124.258 121.316 Z " fill="rgb(78,222,203)"/><path d=" M 74.918 128.477 C 74.918 128.477 86.994 162.209 90.333 168.028 L 91.478 145.514 L 80.697 130.441 L 74.918 128.477 Z " fill="rgb(1,139,209)"/><path d=" M 90.907 188.221 L 90.882 187.537 C 90.882 187.537 90.882 187.537 90.882 187.537 L 90.882 187.537 L 90.134 167.668 L 74.918 128.477 C 74.918 128.477 74.907 128.566 74.885 128.737 C 74.539 131.582 70.484 158.203 74.047 174.762 C 74.12 174.993 74.324 175.441 74.652 174.615 C 75.671 171.479 78.481 163.059 79.617 161.924 C 79.617 161.924 80.151 173.581 81.269 178.544 C 81.3 178.664 81.552 179.584 82.278 180.447 C 83.948 182.44 88.118 186.255 90.349 188.456 C 90.512 188.598 90.851 188.814 90.907 188.221 Z " fill="rgb(0,204,185)"/><path d=" M 117.297 82.922 C 117.555 80.161 119.94 78.123 122.621 78.373 C 125.301 78.624 127.268 81.069 127.01 83.83 C 126.751 86.592 124.366 88.63 121.685 88.379 C 119.005 88.129 117.038 85.683 117.297 82.922 Z " fill="rgb(4,91,127)"/><path d=" M 126.171 82.551 C 126.171 82.551 145.378 79.116 174.889 76.318 C 174.889 76.318 148.859 82.403 142.881 85.583 L 125.281 84.077 L 126.171 82.551 Z " fill="rgb(4,91,127)"/><path d=" M 118.22 84.016 L 108.552 88.85 L 109.358 89.553 L 119.302 84.967 L 118.22 84.016 Z " fill="rgb(4,91,127)"/><path d=" M 119.662 159.978 C 119.582 159.943 119.505 159.908 119.425 159.874 C 119.421 159.873 119.413 159.872 119.413 159.872 L 119.416 159.87 C 99.739 151.308 94.06 143.503 94.06 143.503 L 91.243 145.187 L 90.174 167.648 C 90.174 167.648 94.321 182.33 96.092 186.865 C 96.105 186.901 96.354 187.54 96.927 187.306 C 97.012 187.253 97.107 187.196 97.212 187.132 C 97.213 187.132 97.214 187.132 97.215 187.13 L 97.215 187.13 C 97.699 186.836 98.376 186.419 99.159 185.926 C 99.195 185.901 103.845 182.552 108.702 177.773 C 109.003 177.383 108.858 177.053 108.814 176.974 C 106.904 173.684 100.629 162.914 98.696 160.015 C 98.696 160.015 106.383 168.152 112.925 172.491 C 113.049 172.562 113.311 172.663 113.543 172.48 C 116.341 168.996 119.085 164.111 119.855 160.448 C 119.87 160.2 119.772 160.058 119.662 159.978 Z " fill="rgb(0,204,185)"/><path d=" M 77.971 89.41 C 77.971 89.41 53.386 101.641 45.515 103.737 L 63.198 108.96 L 77.971 89.41 Z " fill="rgb(1,139,209)"/><path d=" M 74.918 128.207 L 49.478 102.767 C 49.427 102.716 49.354 102.699 49.283 102.721 C 49.271 102.725 49.187 102.748 49.069 102.781 L 48.91 102.617 L 48.354 102.817 L 45.95 103.621 C 38.476 105.624 19.747 110.598 3.362 114.733 C 3.333 114.74 3.254 114.774 3.254 114.774 C 3.254 114.774 2.566 115.022 3.455 115.277 C 7.127 116.121 33.338 122.037 74.753 128.53 C 74.764 128.532 74.773 128.532 74.783 128.532 C 74.854 128.532 74.92 128.493 74.953 128.428 C 74.99 128.355 74.976 128.266 74.918 128.207 Z " fill="rgb(0,165,233)"/><path d=" M 87.314 85.097 L 52.822 101.021 L 48.517 102.759 L 66.396 120.128 L 74.918 128.477 L 87.314 85.097 Z " fill="rgb(1,139,209)"/></g></g></svg>